name processed_emg_signals
nRows=45
nColumns=7
 
endheader
time	LGLTMED	LRF	LADDLONG	LBF	LTA	LGM
10.669999999999932	0.4595345053069383	0.6519913666417589	0.9927890959364056	0.439877701376591	0.8567199268919768	0.604277632752075
10.679999999999932	0.4625707598991705	0.6526517669692398	0.991492209693556	0.4400909267698525	0.8568915772442147	0.6056602100193339
10.689999999999932	0.465635995713418	0.6533106167637167	0.9901048598742708	0.4402979985027741	0.8570337306698468	0.607041500566155
10.699999999999932	0.4687272612693806	0.6539676631866372	0.9886312547525916	0.4404988257431651	0.8571451160506943	0.6084202720865226
10.709999999999932	0.4718415543071609	0.6546226333149625	0.9870756919935012	0.4406932922526803	0.8572245845310918	0.6097952731637201
10.719999999999931	0.4749758278076399	0.6552752356846967	0.9854425483084064	0.4408812576679526	0.8572711122954787	0.6111652358491902
10.729999999999931	0.47812699619558	0.6559251618754754	0.9837362690293122	0.4410625589372246	0.8572838027700785	0.6125288784464222
10.739999999999931	0.4812919417122477	0.6565720881261213	0.9819613576262364	0.4412370119043924	0.8572618882617101	0.6138849084937615
10.74999999999993	0.4844675209435959	0.6572156769712839	0.980122365190137	0.441404413031959	0.8572047310486195	0.6152320259381417
10.75999999999993	0.4876505714889427	0.6578555788903033	0.9782238799009813	0.4415645412535094	0.8571118239392157	0.6165689264903899
10.76999999999993	0.490837918754231	0.6584914339608415	0.9762705164979212	0.4417171599459764	0.8569827903152549	0.6178943051507905
10.77999999999993	0.4940263828529002	0.6591228735116433	0.9742669057659832	0.4418620190116281	0.85681738367687	0.6192068598919647
10.78999999999993	0.4972127855962368	0.6597495217705643	0.9722176840514984	0.4419988570597432	0.8566154867078262	0.620505295484123
10.79999999999993	0.5003939575542806	0.6603709975058363	0.9701274828180732	0.4421274036779586	0.856377109880336	0.621788327445795
10.80999999999993	0.5035667451669837	0.6609869156604256	0.9680009182560028	0.4422473817829271	0.8561023896192308	0.6230546861009236
10.81999999999993	0.5067280178845556	0.6615968889802337	0.9658425809610612	0.4423585100389051	0.8557915860451769	0.6243031207210754
10.829999999999929	0.5098746753148399	0.6622005296368758	0.9636570257029564	0.4424605053320646	0.8554450803157967	0.6255324037289924
10.839999999999929	0.5130036543548402	0.6627974508450771	0.9614487613082788	0.4425530852870869	0.8550633715827624	0.6267413349375586
10.849999999999929	0.5161119362826433	0.6633872684735246	0.9592222406871104	0.4426359708120649	0.8546470735818219	0.6279287457961119
10.859999999999928	0.5191965537847019	0.6639696026471545	0.9569818510357804	0.4427088886571071	0.8541969108726316	0.6290935036142379
10.869999999999928	0.5222545978925139	0.6645440793381152	0.95473190425043	0.4427715739714468	0.8537137147455716	0.6302345157319096
10.879999999999928	0.5252832248013254	0.6651103319421323	0.9524766275870932	0.4428237728436602	0.8531984188139259	0.631350733603944
10.889999999999928	0.5282796625426993	0.6656680028362633	0.9502201546044924	0.4428652448092224	0.8526520543102662	0.6324411567665869
10.899999999999928	0.5312412174819332	0.6662167449128613	0.9479665164249852	0.4428957653094615	0.852075745106088	0.6335048366549924
10.909999999999927	0.5341652806110297	0.666756223082802	0.9457196333478196	0.4429151280855978	0.8514707024725954	0.6345408802417215
10.919999999999927	0.5370493336079302	0.6672861157392848	0.9434833068469568	0.4429231474914453	0.8508382195991407	0.6355484534674897
10.929999999999927	0.5398909546331534	0.66780611617139	0.9412612119833476	0.4429196607081647	0.8501796658842359	0.6365267844360339
10.939999999999927	0.542687823835861	0.6683159339153181	0.9390568902587596	0.4429045298445727	0.8494964810128511	0.6374751663450314
10.949999999999926	0.5454377285423098	0.6688152960300522	0.9368737429353492	0.4428776439064079	0.8487901688332347	0.6383929601257625
10.959999999999926	0.5481385681013021	0.66930394828408	0.9347150248421232	0.4428389206181871	0.8480622910478385	0.6392795967661713
10.969999999999926	0.5507883583627053	0.6697816562399552	0.9325838386868572	0.4427883080816866	0.8473144607361601	0.6401345792963739
10.979999999999926	0.5533852357671485	0.6702482062246119	0.9304831298900174	0.4427257862557895	0.8465483357321218	0.6409574844234396
10.989999999999926	0.5559274610261447	0.6707034061749814	0.9284156819554824	0.4426513682435392	0.8457656118832143	0.6417479638115446
10.999999999999925	0.5584134223741365	0.6711470863506418	0.9263841123915196	0.4425651013742787	0.8449680162217711	0.6425057450113998
11.009999999999925	0.5608416383771878	0.6715790999075891	0.9243908691939184	0.4424670680704243	0.8441573000806812	0.6432306320470902
11.019999999999925	0.5632107602881588	0.671999323329702	0.9224382279017352	0.4423573864907797	0.8433352321870479	0.6439225056698736
11.029999999999925	0.5655195739429473	0.6724076567176823	0.920528289234504	0.4422362109442439	0.8425035917677138	0.6445813232881871
11.039999999999925	0.567767001195927	0.6728040239376979	0.9186629773182944	0.4421037320705001	0.8416641617006727	0.6452071185822316
11.049999999999924	0.5699521008952081	0.6731883726337583	0.9168440385059904	0.4419601767870204	0.8408187217453899	0.6458000008106065
11.059999999999924	0.5720740694001473	0.6735606741084694	0.915073040795025	0.4418058080049657	0.8399690418841087	0.6463601538157121
11.069999999999924	0.5741322406451547	0.6739209230772604	0.9133513738434824	0.4416409241190246	0.8391168758045678	0.646887834734769
11.079999999999924	0.5761260857551131	0.67426913730154	0.9116802495831688	0.4414658582782518	0.8382639545532985	0.6473833724240209
11.089999999999923	0.5780552122181636	0.6746053571066025	0.9100607034260632	0.4412809774458849	0.8374119803872044	0.6478471656052103
11.099999999999923	0.5799193626218497	0.674929644790552	0.9084935960583926	0.4410866812567013	0.8365626208499797	0.648279680744885
11.109999999999923	0.5817184129586447	0.6752420839311745	0.9069796158144356	0.4408834006806165	0.8357175030984545	0.6486814496785107
